<?xml version="1.0" encoding="UTF-8"?>
<!-- Generator: Blender, SVG Export for Grease Pencil - v1.0 -->
<!DOCTYPE svg PUBLIC "-//W3C//DTD SVG 1.1//EN" "http://www.w3.org/Graphics/SVG/1.1/DTD/svg11.dtd">
<svg version="1.0" x="0px" y="0px" xmlns="http://www.w3.org/2000/svg" width="520px" height="520px" viewBox="0 0 520 520">
	<g id="blender_frame_1">
		<g id="blender_object_timer">
			<!--Layer: Lines-->
			<g id="Lines">
				<polygon stroke="#000000" stroke-opacity="1" fill="none" stroke-linecap="round" stroke-width="38.0568848" points="431.798401,264.155945 431.415466,252.458954 430.268341,240.812073 428.361908,229.265137 425.704376,217.867584 422.307159,206.668243 418.184662,195.715088 413.354614,185.055054 407.837708,174.733673 401.657623,164.795227 394.840637,155.282257 387.416199,146.235565 379.415924,137.693756 370.874146,129.693451 361.827393,122.269012 352.314453,115.452148 342.375977,109.272003 332.054565,103.755157 321.394470,98.925110 310.441345,94.802612 299.242035,91.405334 287.844452,88.747803 276.297485,86.841400 264.650543,85.694275 252.953568,85.311371 241.256546,85.694275 229.609619,86.841400 218.062653,88.747803 206.665131,91.405334 195.465759,94.802612 184.512604,98.925110 173.852539,103.755066 163.531097,109.272003 153.592667,115.452087 144.079681,122.269012 135.032898,129.693451 126.491104,137.693817 118.490799,146.235565 111.066315,155.282318 104.249390,164.795319 98.069260,174.733765 92.552406,185.055145 87.722359,195.715271 83.599869,206.668427 80.202621,217.867767 77.545067,229.265320 75.638695,240.812286 74.491547,252.459229 74.108658,264.156219 74.491608,275.853241 75.638756,287.500183 77.545174,299.047150 80.202759,310.444702 83.600075,321.644012 87.722580,332.597198 92.552628,343.257263 98.069519,353.578613 104.249702,363.517029 111.066628,373.030029 118.491150,382.076721 126.491478,390.618530 135.033310,398.618805 144.080078,406.043213 153.593048,412.860077 163.531494,419.040161 173.852844,424.557007 184.512909,429.386963 195.466064,433.509460 206.665405,436.906677 218.062958,439.564178 229.609879,441.470581 241.256805,442.617645 252.953796,443.000580 264.650787,442.617615 276.297699,441.470490 287.844604,439.564087 299.242126,436.906525 310.441467,433.509277 321.394592,429.386780 332.054657,424.556763 342.376007,419.039886 352.314453,412.859772 361.827393,406.042908 370.874146,398.618469 379.415924,390.618225 387.416199,382.076416 394.840637,373.029724 401.657501,363.516754 407.837616,353.578369 413.354553,343.257019 418.184570,332.596985 422.307037,321.643860 425.704315,310.444550 428.361847,299.047058 430.268280,287.500122 431.415405,275.853241" />
				<polyline stroke="#000000" stroke-opacity="1" fill="none" stroke-linecap="round" stroke-width="45.6477051" points="247.851074,165.104706 247.851074,180.340271 247.851074,195.575775 247.851074,210.811340 247.851074,226.046844 247.851074,241.282410 247.851074,256.517975 247.851074,271.753479 261.232605,271.753479 274.614075,271.753479 287.995575,271.753479 301.377106,271.753479 314.758606,271.753479 328.140076,271.753479 341.521576,271.753479" />
			</g>
		</g>
	</g>
	<g id="blender_frame_1">
		<g id="blender_object_tick">
			<!--Layer: Lines-->
			<g id="Lines">
				<polyline stroke="#000000" stroke-opacity="1" fill="none" stroke-linecap="round" stroke-width="45.3341064" points="34.335968,213.312744 48.072586,237.102966 61.809235,260.893219 75.545807,284.683472 89.282433,308.473694 103.019066,332.263947 116.755699,356.054199 130.492340,379.844421 181.258133,333.557983 232.023941,287.271515 282.789673,240.985077 333.555481,194.698608 384.321289,148.412140 435.087006,102.125671 485.852844,55.839294" />
			</g>
		</g>
	</g>
	<g id="blender_frame_1">
		<g id="blender_object_down arrow">
			<!--Layer: Lines-->
			<g id="Lines" />
		</g>
	</g>
	<g id="blender_frame_1">
		<g id="blender_object_up arrow">
			<!--Layer: Lines-->
			<g id="Lines" />
		</g>
	</g>
	<g id="blender_frame_1">
		<g id="blender_object_maximize">
			<!--Layer: Lines-->
			<g id="Lines" />
		</g>
	</g>
	<g id="blender_frame_1">
		<g id="blender_object_minimize">
			<!--Layer: Lines-->
			<g id="Lines" />
		</g>
	</g>
</svg>
