<?xml version="1.0" encoding="UTF-8"?>
<!-- Generator: Blender, SVG Export for Grease Pencil - v1.0 -->
<!DOCTYPE svg PUBLIC "-//W3C//DTD SVG 1.1//EN" "http://www.w3.org/Graphics/SVG/1.1/DTD/svg11.dtd">
<svg version="1.0" x="0px" y="0px" xmlns="http://www.w3.org/2000/svg" width="520px" height="520px" viewBox="0 0 520 520">
	<g id="blender_frame_1">
		<g id="blender_object_maximize">
			<!--Layer: Lines-->
			<g id="Lines">
				<polygon stroke="#000000" stroke-opacity="1" fill="none" stroke-linecap="round" stroke-width="23.3001099" points="473.433807,129.459137 452.840240,108.865601 432.246643,88.272034 411.653076,67.678467 391.059509,47.084930 473.123932,47.394806 473.123932,47.394806 473.123932,47.394806 473.123932,47.394806 473.123932,47.394806 473.123932,47.394806 473.123932,47.394806 473.123932,47.394806 473.123932,47.394806 473.123932,47.394806 473.123932,47.394806" />
				<polyline stroke="#000000" stroke-opacity="1" fill="none" stroke-linecap="round" stroke-width="29.3269653" points="306.187042,211.259918 322.766510,195.052948 339.345947,178.846008 355.925354,162.639069 372.504822,146.432129 389.084259,130.225250 405.663635,114.018219 422.243103,97.811340" />
				<polygon stroke="#000000" stroke-opacity="1" fill="none" stroke-linecap="round" stroke-width="23.3000488" points="390.540863,473.433807 411.134399,452.840271 431.727966,432.246704 452.321594,411.653107 472.915131,391.059570 472.605255,473.123993 472.605255,473.123993 472.605255,473.123993 472.605255,473.123993 472.605255,473.123993 472.605255,473.123993 472.605255,473.123993 472.605255,473.123993 472.605255,473.123993 472.605255,473.123993 472.605255,473.123993" />
				<polyline stroke="#000000" stroke-opacity="1" fill="none" stroke-linecap="round" stroke-width="29.3269043" points="308.740112,306.187073 324.947083,322.766541 341.154022,339.345978 357.360931,355.925385 373.567871,372.504883 389.774780,389.084290 405.981781,405.663696 422.188690,422.243134" />
				<polygon stroke="#000000" stroke-opacity="1" fill="none" stroke-linecap="round" stroke-width="23.3001099" points="46.566212,390.540863 67.159798,411.134430 87.753326,431.727997 108.346886,452.321594 128.940445,472.915192 46.876060,472.605286 46.876060,472.605286 46.876060,472.605286 46.876060,472.605286 46.876060,472.605286 46.876060,472.605286 46.876060,472.605286 46.876060,472.605286 46.876060,472.605286 46.876060,472.605286 46.876060,472.605286" />
				<polyline stroke="#000000" stroke-opacity="1" fill="none" stroke-linecap="round" stroke-width="29.3269653" points="213.812943,308.740143 197.233505,324.947144 180.654053,341.154053 164.074615,357.360962 147.495163,373.567902 130.915726,389.774841 114.336334,405.981812 97.756897,422.188721" />
				<polygon stroke="#000000" stroke-opacity="1" fill="none" stroke-linecap="round" stroke-width="23.3001099" points="129.459183,46.566254 108.865608,67.159821 88.272049,87.753326 67.678429,108.346924 47.084854,128.940491 47.394783,46.876068 47.394783,46.876068 47.394783,46.876068 47.394783,46.876068 47.394783,46.876068 47.394783,46.876068 47.394783,46.876068 47.394783,46.876068 47.394783,46.876068 47.394783,46.876068 47.394783,46.876068" />
				<polyline stroke="#000000" stroke-opacity="1" fill="none" stroke-linecap="round" stroke-width="29.3269653" points="211.259888,213.812988 195.052902,197.233521 178.845993,180.654083 162.639069,164.074646 146.432129,147.495209 130.225204,130.915771 114.018211,114.336365 97.811310,97.756958" />
			</g>
		</g>
	</g>
</svg>
