<?xml version="1.0" encoding="UTF-8"?>
<!-- Generator: Blender, SVG Export for Grease Pencil - v1.0 -->
<!DOCTYPE svg PUBLIC "-//W3C//DTD SVG 1.1//EN" "http://www.w3.org/Graphics/SVG/1.1/DTD/svg11.dtd">
<svg version="1.0" x="0px" y="0px" xmlns="http://www.w3.org/2000/svg" width="520px" height="520px" viewBox="0 0 520 520">
	<g id="blender_frame_1">
		<g id="blender_object_minimize">
			<!--Layer: Lines-->
			<g id="Lines">
				<polygon stroke="#000000" stroke-opacity="1" fill="none" stroke-linecap="round" stroke-width="23.3001099" points="139.975922,219.397980 160.569489,198.804382 181.163040,178.210846 201.756653,157.617249 222.350220,137.023743 222.040298,219.088104 222.040298,219.088104 222.040298,219.088104 222.040298,219.088104 222.040298,219.088104 222.040298,219.088104 222.040298,219.088104 222.040298,219.088104 222.040298,219.088104 222.040298,219.088104 222.040298,219.088104" />
				<polyline stroke="#000000" stroke-opacity="1" fill="none" stroke-linecap="round" stroke-width="29.3269653" points="58.175217,52.151215 74.382195,68.730682 90.589111,85.310089 106.796028,101.889557 123.002968,118.469025 139.209900,135.048431 155.416870,151.627838 171.623764,168.207275" />
				<polygon stroke="#000000" stroke-opacity="1" fill="none" stroke-linecap="round" stroke-width="23.3001709" points="300.602051,139.975952 321.195648,160.569519 341.789185,181.163055 362.382782,201.756683 382.976288,222.350250 300.911926,222.040344 300.911926,222.040344 300.911926,222.040344 300.911926,222.040344 300.911926,222.040344 300.911926,222.040344 300.911926,222.040344 300.911926,222.040344 300.911926,222.040344 300.911926,222.040344 300.911926,222.040344" />
				<polyline stroke="#000000" stroke-opacity="1" fill="none" stroke-linecap="round" stroke-width="29.3269653" points="467.848846,58.175293 451.269379,74.382263 434.689972,90.589172 418.110443,106.796051 401.531036,123.003021 384.951599,139.209930 368.372192,155.416901 351.792786,171.623840" />
				<polygon stroke="#000000" stroke-opacity="1" fill="none" stroke-linecap="round" stroke-width="23.3001099" points="380.024078,300.602112 359.430511,321.195679 338.836975,341.789215 318.243347,362.382813 297.649780,382.976318 297.959686,300.911926 297.959686,300.911926 297.959686,300.911926 297.959686,300.911926 297.959686,300.911926 297.959686,300.911926 297.959686,300.911926 297.959686,300.911926 297.959686,300.911926 297.959686,300.911926 297.959686,300.911926" />
				<polyline stroke="#000000" stroke-opacity="1" fill="none" stroke-linecap="round" stroke-width="29.3269653" points="461.824799,467.848907 445.617798,451.269440 429.410889,434.690033 413.203979,418.110504 396.997040,401.531067 380.790100,384.951630 364.583130,368.372253 348.376190,351.792816" />
				<polygon stroke="#000000" stroke-opacity="1" fill="none" stroke-linecap="round" stroke-width="23.3001099" points="219.397919,380.024109 198.804367,359.430542 178.210815,338.836975 157.617264,318.243347 137.023712,297.649811 219.088104,297.959717 219.088104,297.959717 219.088104,297.959717 219.088104,297.959717 219.088104,297.959717 219.088104,297.959717 219.088104,297.959717 219.088104,297.959717 219.088104,297.959717 219.088104,297.959717 219.088104,297.959717" />
				<polyline stroke="#000000" stroke-opacity="1" fill="none" stroke-linecap="round" stroke-width="29.3269043" points="52.151127,461.824768 68.730598,445.617798 85.310020,429.410889 101.889534,413.204010 118.468979,396.997070 135.048401,380.790131 151.627777,364.583160 168.207214,348.376221" />
			</g>
		</g>
	</g>
</svg>
