<?xml version="1.0" encoding="UTF-8"?>
<!-- Generator: Blender, SVG Export for Grease Pencil - v1.0 -->
<!DOCTYPE svg PUBLIC "-//W3C//DTD SVG 1.1//EN" "http://www.w3.org/Graphics/SVG/1.1/DTD/svg11.dtd">
<svg version="1.0" x="0px" y="0px" xmlns="http://www.w3.org/2000/svg" width="1920px" height="1920px" viewBox="0 0 1920 1920">
	<g id="blender_frame_1">
		<g id="blender_object_timer">
			<!--Layer: Lines-->
			<g id="Lines">
				<polygon stroke="#000000" stroke-opacity="1" fill="none" stroke-linecap="round" stroke-width="140.517822" points="1594.332520,975.345093 1592.918701,932.156189 1588.683105,889.152222 1581.644043,846.517456 1571.831543,804.434204 1559.287964,763.082764 1544.066406,722.640381 1526.232422,683.280151 1505.862305,645.170532 1483.043457,608.474731 1457.873169,573.349854 1430.459839,539.946655 1400.920410,508.407715 1369.381470,478.868164 1335.978027,451.454834 1300.853394,426.284912 1264.157471,403.465820 1226.047607,383.095947 1186.687256,365.261963 1146.244873,350.040405 1104.893677,337.496582 1062.810303,327.684204 1020.175293,320.645142 977.171265,316.409668 933.982422,314.995850 890.793396,316.409668 847.789368,320.645142 805.154419,327.684204 763.071289,337.496582 721.719727,350.040405 681.277344,365.261963 641.917053,383.095703 603.807129,403.465820 567.111389,426.284668 531.986511,451.454834 498.583038,478.868164 467.044098,508.407959 437.504486,539.946655 410.091003,573.350098 384.920837,608.475098 362.101868,645.170898 341.731964,683.280518 323.897949,722.640991 308.676453,763.083496 296.132751,804.434814 286.320251,846.518066 279.281342,889.153076 275.045715,932.157104 273.631958,975.346069 275.045929,1018.535034 279.281555,1061.539063 286.320648,1104.174072 296.133270,1146.257324 308.677185,1187.608643 323.898743,1228.051270 341.732758,1267.411377 362.102844,1305.520996 384.921967,1342.216797 410.092163,1377.341675 437.505798,1410.744873 467.045471,1442.283813 498.584534,1471.823242 531.987976,1499.236572 567.112793,1524.406372 603.808594,1547.225220 641.918213,1567.594971 681.278442,1585.428833 721.720825,1600.650269 763.072266,1613.193848 805.155518,1623.006226 847.790344,1630.045166 890.794373,1634.280518 933.983215,1635.694458 977.172119,1634.280518 1020.176147,1630.044922 1062.810913,1623.005859 1104.894043,1613.193359 1146.245361,1600.649658 1186.687744,1585.428101 1226.047974,1567.594238 1264.157471,1547.224121 1300.853394,1524.405273 1335.978027,1499.235352 1369.381470,1471.822021 1400.920410,1442.282715 1430.459839,1410.743774 1457.873169,1377.340576 1483.043091,1342.215698 1505.862061,1305.520142 1526.232178,1267.410522 1544.066162,1228.050415 1559.287476,1187.608154 1571.831299,1146.256836 1581.643799,1104.173706 1588.682861,1061.538818 1592.918457,1018.535034" />
				<polyline stroke="#000000" stroke-opacity="1" fill="none" stroke-linecap="round" stroke-width="168.54541" points="915.142395,609.617432 915.142395,665.871704 915.142395,722.125977 915.142395,778.380371 915.142395,834.634521 915.142395,890.888916 915.142395,947.143250 915.142395,1003.397522 964.551208,1003.397522 1013.959717,1003.397522 1063.368286,1003.397522 1112.776978,1003.397522 1162.185669,1003.397522 1211.594116,1003.397522 1261.002686,1003.397522" />
			</g>
		</g>
	</g>
</svg>
