<?xml version="1.0" encoding="UTF-8"?>
<!-- Generator: Blender, SVG Export for Grease Pencil - v1.0 -->
<!DOCTYPE svg PUBLIC "-//W3C//DTD SVG 1.1//EN" "http://www.w3.org/Graphics/SVG/1.1/DTD/svg11.dtd">
<svg version="1.0" x="0px" y="0px" xmlns="http://www.w3.org/2000/svg" width="520px" height="520px" viewBox="0 0 520 520">
	<g id="blender_frame_1">
		<g id="blender_object_todo_box">
			<!--Layer: Lines-->
			<g id="Lines">
				<polygon stroke="#000000" stroke-opacity="1" fill="none" stroke-linecap="round" stroke-width="51.8859863" points="476.142517,259.999969 475.679840,245.863617 474.293518,231.787720 471.989655,217.832611 468.777710,204.058197 464.671753,190.523224 459.689575,177.285797 453.852539,164.402618 447.184753,151.928772 439.715973,139.917572 431.477234,128.420776 422.504456,117.487488 412.835754,107.164246 402.512573,97.495239 391.579102,88.522461 380.082489,80.284027 368.071259,72.814941 355.597412,66.147522 342.714233,60.310120 329.476715,55.328003 315.941833,51.222290 302.167328,48.010406 288.212280,45.706482 274.136383,44.320160 260.000031,43.857544 245.863602,44.320160 231.787735,45.706482 217.832748,48.010406 204.058151,51.222290 190.523285,55.328003 177.285736,60.310120 164.402588,66.147522 151.928741,72.814941 139.917679,80.284027 128.420547,88.522461 117.487076,97.495544 107.164200,107.164246 97.495522,117.487488 88.522392,128.420776 80.284042,139.917725 72.814857,151.928772 66.147461,164.402802 60.310406,177.285980 55.327900,190.523407 51.222286,204.058380 48.010365,217.832916 45.706425,231.788025 44.320091,245.863892 43.857487,260.000305 44.320091,274.136749 45.706425,288.212646 48.010719,302.167725 51.222286,315.942139 55.328239,329.477112 60.310406,342.714661 66.147850,355.597809 72.815224,368.071655 80.284401,380.082703 88.523117,391.579529 97.495865,402.513000 107.164574,412.836182 117.487801,422.504883 128.421265,431.477631 139.918060,439.716431 151.929108,447.185181 164.402969,453.852600 177.286285,459.690002 190.523636,464.672119 204.058594,468.777802 217.833023,471.989655 231.788101,474.293579 245.863922,475.679932 260.000275,476.142548 274.136658,475.679932 288.212524,474.293579 302.167511,471.989349 315.942017,468.777802 329.476898,464.671753 342.714233,459.689667 355.597565,453.852234 368.071442,447.184845 380.082489,439.716034 391.579102,431.477264 402.512573,422.504547 412.835754,412.835815 422.504456,402.512573 431.477234,391.579132 439.715973,380.082336 447.184753,368.071289 453.852539,355.597656 459.689575,342.714264 464.671753,329.476929 468.777710,315.942047 471.989288,302.167542 474.293518,288.212555 475.679840,274.136719" />
			</g>
		</g>
	</g>
</svg>
